<svg viewBox="0 0 20 16" xmlns="http://www.w3.org/2000/svg" xmlns:xlink="http://www.w3.org/1999/xlink"><style>:root&gt;svg{display:none}:root&gt;svg:target{display:block}</style><svg fill="none" viewBox="0 0 16 8" id="arrow-down" xmlns="http://www.w3.org/2000/svg"><path fill-rule="evenodd" clip-rule="evenodd" d="M.37.36a1.29 1.29 0 011.786 0L8 5.036 13.844.36a1.29 1.29 0 011.786 0c.493.48.493 1.257 0 1.736L8.893 7.641a1.29 1.29 0 01-1.786 0L.37 2.095A1.203 1.203 0 01.37.36z" fill="#00002E" fill-opacity=".28"/></svg><svg fill="none" viewBox="0 0 20 16" id="filter" xmlns="http://www.w3.org/2000/svg"><path d="M0 3.5A1.5 1.5 0 011.5 2h8.837a3.5 3.5 0 016.326 0H18.5a1.5 1.5 0 010 3h-1.837a3.5 3.5 0 01-6.326 0H1.5A1.5 1.5 0 010 3.5zm20 9a1.5 1.5 0 00-1.5-1.5H9.663a3.5 3.5 0 00-6.326 0H1.5a1.5 1.5 0 000 3h1.837a3.5 3.5 0 006.326 0H18.5a1.5 1.5 0 001.5-1.5z" fill="#00002E" fill-opacity=".28"/></svg><svg fill="none" viewBox="0 0 16 16" id="wallet" xmlns="http://www.w3.org/2000/svg"><path fill-rule="evenodd" clip-rule="evenodd" d="M0 3.36c0-.76.557-1.414 1.326-1.554l9.75-1.778C12.075-.155 13 .592 13 1.58V3H3a1 1 0 000 2h11a2 2 0 012 2v7a2 2 0 01-2 2H2a2 2 0 01-2-2V3.36zm14 7.14a1.5 1.5 0 11-3 0 1.5 1.5 0 013 0z" fill="#00002E" fill-opacity=".28"/></svg></svg>